<mxfile host="app.diagrams.net" modified="2024-06-23T17:35:35.833Z" agent="Mozilla/5.0 (Windows NT 10.0; Win64; x64) AppleWebKit/537.36 (KHTML, like Gecko) Chrome/126.0.0.0 Safari/537.36" etag="sd4h5HemrZMEedjfDGAc" version="24.6.2" type="device">
  <diagram name="Page-1" id="ajki2U_npop0Cp-2EpqE">
    <mxGraphModel dx="2234" dy="1230" grid="0" gridSize="10" guides="1" tooltips="1" connect="1" arrows="1" fold="1" page="0" pageScale="1" pageWidth="850" pageHeight="1100" math="0" shadow="0">
      <root>
        <mxCell id="0" />
        <mxCell id="1" parent="0" />
        <mxCell id="_s9-1Ygfd8paigMYJvEP-3" style="edgeStyle=none;curved=1;rounded=0;orthogonalLoop=1;jettySize=auto;html=1;fontSize=12;startSize=8;endSize=8;" edge="1" parent="1" source="_s9-1Ygfd8paigMYJvEP-1" target="_s9-1Ygfd8paigMYJvEP-2">
          <mxGeometry relative="1" as="geometry" />
        </mxCell>
        <mxCell id="_s9-1Ygfd8paigMYJvEP-1" value="Start" style="strokeWidth=2;html=1;shape=mxgraph.flowchart.start_1;whiteSpace=wrap;fillColor=#d5e8d4;strokeColor=#82b366;" vertex="1" parent="1">
          <mxGeometry x="-428" y="143" width="100" height="60" as="geometry" />
        </mxCell>
        <mxCell id="_s9-1Ygfd8paigMYJvEP-7" style="edgeStyle=none;curved=1;rounded=0;orthogonalLoop=1;jettySize=auto;html=1;entryX=0;entryY=0.5;entryDx=0;entryDy=0;fontSize=12;startSize=8;endSize=8;" edge="1" parent="1" source="_s9-1Ygfd8paigMYJvEP-2" target="_s9-1Ygfd8paigMYJvEP-5">
          <mxGeometry relative="1" as="geometry">
            <Array as="points">
              <mxPoint x="-204" y="65" />
            </Array>
          </mxGeometry>
        </mxCell>
        <mxCell id="_s9-1Ygfd8paigMYJvEP-8" style="edgeStyle=none;curved=1;rounded=0;orthogonalLoop=1;jettySize=auto;html=1;entryX=0;entryY=0.5;entryDx=0;entryDy=0;fontSize=12;startSize=8;endSize=8;" edge="1" parent="1" source="_s9-1Ygfd8paigMYJvEP-2" target="_s9-1Ygfd8paigMYJvEP-6">
          <mxGeometry relative="1" as="geometry">
            <Array as="points">
              <mxPoint x="-204" y="283" />
            </Array>
          </mxGeometry>
        </mxCell>
        <mxCell id="_s9-1Ygfd8paigMYJvEP-2" value="Create processes" style="rounded=1;whiteSpace=wrap;html=1;absoluteArcSize=1;arcSize=14;strokeWidth=2;fillColor=#d5e8d4;strokeColor=#82b366;" vertex="1" parent="1">
          <mxGeometry x="-286" y="123" width="100" height="100" as="geometry" />
        </mxCell>
        <mxCell id="_s9-1Ygfd8paigMYJvEP-10" style="edgeStyle=none;curved=1;rounded=0;orthogonalLoop=1;jettySize=auto;html=1;entryX=0;entryY=0.5;entryDx=0;entryDy=0;fontSize=12;startSize=8;endSize=8;" edge="1" parent="1" source="_s9-1Ygfd8paigMYJvEP-5" target="_s9-1Ygfd8paigMYJvEP-9">
          <mxGeometry relative="1" as="geometry" />
        </mxCell>
        <mxCell id="_s9-1Ygfd8paigMYJvEP-5" value="Setup signal handlers" style="rounded=1;whiteSpace=wrap;html=1;absoluteArcSize=1;arcSize=14;strokeWidth=2;fillColor=#dae8fc;strokeColor=#6c8ebf;" vertex="1" parent="1">
          <mxGeometry x="-150" y="-9" width="100" height="100" as="geometry" />
        </mxCell>
        <mxCell id="_s9-1Ygfd8paigMYJvEP-14" style="edgeStyle=none;curved=1;rounded=0;orthogonalLoop=1;jettySize=auto;html=1;entryX=0;entryY=0.5;entryDx=0;entryDy=0;fontSize=12;startSize=8;endSize=8;" edge="1" parent="1" source="_s9-1Ygfd8paigMYJvEP-6" target="_s9-1Ygfd8paigMYJvEP-11">
          <mxGeometry relative="1" as="geometry" />
        </mxCell>
        <mxCell id="_s9-1Ygfd8paigMYJvEP-6" value="Start timer" style="rounded=1;whiteSpace=wrap;html=1;absoluteArcSize=1;arcSize=14;strokeWidth=2;fillColor=#e1d5e7;strokeColor=#9673a6;" vertex="1" parent="1">
          <mxGeometry x="-150" y="255" width="100" height="100" as="geometry" />
        </mxCell>
        <mxCell id="_s9-1Ygfd8paigMYJvEP-18" style="edgeStyle=none;curved=1;rounded=0;orthogonalLoop=1;jettySize=auto;html=1;entryX=0;entryY=0.5;entryDx=0;entryDy=0;fontSize=12;startSize=8;endSize=8;" edge="1" parent="1" source="_s9-1Ygfd8paigMYJvEP-9" target="_s9-1Ygfd8paigMYJvEP-17">
          <mxGeometry relative="1" as="geometry" />
        </mxCell>
        <mxCell id="_s9-1Ygfd8paigMYJvEP-9" value="Start complicated process" style="rounded=1;whiteSpace=wrap;html=1;absoluteArcSize=1;arcSize=14;strokeWidth=2;fillColor=#dae8fc;strokeColor=#6c8ebf;" vertex="1" parent="1">
          <mxGeometry x="-28" y="-9" width="100" height="100" as="geometry" />
        </mxCell>
        <mxCell id="_s9-1Ygfd8paigMYJvEP-15" style="edgeStyle=none;curved=1;rounded=0;orthogonalLoop=1;jettySize=auto;html=1;entryX=0;entryY=0.5;entryDx=0;entryDy=0;fontSize=12;startSize=8;endSize=8;" edge="1" parent="1" source="_s9-1Ygfd8paigMYJvEP-11" target="_s9-1Ygfd8paigMYJvEP-12">
          <mxGeometry relative="1" as="geometry" />
        </mxCell>
        <mxCell id="_s9-1Ygfd8paigMYJvEP-11" value="wait for status return from timer" style="rounded=1;whiteSpace=wrap;html=1;absoluteArcSize=1;arcSize=14;strokeWidth=2;fillColor=#e1d5e7;strokeColor=#9673a6;" vertex="1" parent="1">
          <mxGeometry x="-28" y="255" width="100" height="100" as="geometry" />
        </mxCell>
        <mxCell id="_s9-1Ygfd8paigMYJvEP-16" style="edgeStyle=none;curved=1;rounded=0;orthogonalLoop=1;jettySize=auto;html=1;entryX=0;entryY=0.5;entryDx=0;entryDy=0;fontSize=12;startSize=8;endSize=8;" edge="1" parent="1" source="_s9-1Ygfd8paigMYJvEP-12" target="_s9-1Ygfd8paigMYJvEP-13">
          <mxGeometry relative="1" as="geometry" />
        </mxCell>
        <mxCell id="_s9-1Ygfd8paigMYJvEP-12" value="prompt user for input" style="rounded=1;whiteSpace=wrap;html=1;absoluteArcSize=1;arcSize=14;strokeWidth=2;fillColor=#e1d5e7;strokeColor=#9673a6;" vertex="1" parent="1">
          <mxGeometry x="94" y="255" width="100" height="100" as="geometry" />
        </mxCell>
        <mxCell id="_s9-1Ygfd8paigMYJvEP-20" style="edgeStyle=none;curved=1;rounded=0;orthogonalLoop=1;jettySize=auto;html=1;entryX=0.5;entryY=1;entryDx=0;entryDy=0;fontSize=12;startSize=8;endSize=8;" edge="1" parent="1" source="_s9-1Ygfd8paigMYJvEP-13" target="_s9-1Ygfd8paigMYJvEP-19">
          <mxGeometry relative="1" as="geometry">
            <Array as="points">
              <mxPoint x="378" y="282" />
            </Array>
          </mxGeometry>
        </mxCell>
        <mxCell id="_s9-1Ygfd8paigMYJvEP-13" value="kill or continue worker process" style="rounded=1;whiteSpace=wrap;html=1;absoluteArcSize=1;arcSize=14;strokeWidth=2;fillColor=#e1d5e7;strokeColor=#9673a6;" vertex="1" parent="1">
          <mxGeometry x="216" y="255" width="100" height="100" as="geometry" />
        </mxCell>
        <mxCell id="_s9-1Ygfd8paigMYJvEP-21" style="edgeStyle=none;curved=1;rounded=0;orthogonalLoop=1;jettySize=auto;html=1;entryX=0.5;entryY=0;entryDx=0;entryDy=0;fontSize=12;startSize=8;endSize=8;" edge="1" parent="1" source="_s9-1Ygfd8paigMYJvEP-17" target="_s9-1Ygfd8paigMYJvEP-19">
          <mxGeometry relative="1" as="geometry">
            <Array as="points">
              <mxPoint x="369" y="24" />
            </Array>
          </mxGeometry>
        </mxCell>
        <mxCell id="_s9-1Ygfd8paigMYJvEP-17" value="exit cleanly" style="rounded=1;whiteSpace=wrap;html=1;absoluteArcSize=1;arcSize=14;strokeWidth=2;fillColor=#dae8fc;strokeColor=#6c8ebf;" vertex="1" parent="1">
          <mxGeometry x="94" y="-9" width="100" height="100" as="geometry" />
        </mxCell>
        <mxCell id="_s9-1Ygfd8paigMYJvEP-19" value="wait for processes to finish" style="rounded=1;whiteSpace=wrap;html=1;absoluteArcSize=1;arcSize=14;strokeWidth=2;fillColor=#d5e8d4;strokeColor=#82b366;" vertex="1" parent="1">
          <mxGeometry x="333" y="123" width="100" height="100" as="geometry" />
        </mxCell>
        <mxCell id="_s9-1Ygfd8paigMYJvEP-23" value="Exit" style="strokeWidth=2;html=1;shape=mxgraph.flowchart.terminator;whiteSpace=wrap;fillColor=#f8cecc;strokeColor=#b85450;" vertex="1" parent="1">
          <mxGeometry x="458" y="143" width="100" height="60" as="geometry" />
        </mxCell>
        <mxCell id="_s9-1Ygfd8paigMYJvEP-24" style="edgeStyle=none;curved=1;rounded=0;orthogonalLoop=1;jettySize=auto;html=1;entryX=0;entryY=0.5;entryDx=0;entryDy=0;entryPerimeter=0;fontSize=12;startSize=8;endSize=8;" edge="1" parent="1" source="_s9-1Ygfd8paigMYJvEP-19" target="_s9-1Ygfd8paigMYJvEP-23">
          <mxGeometry relative="1" as="geometry" />
        </mxCell>
        <mxCell id="_s9-1Ygfd8paigMYJvEP-25" value="Worker Process" style="text;html=1;align=center;verticalAlign=middle;whiteSpace=wrap;rounded=0;fontSize=16;" vertex="1" parent="1">
          <mxGeometry x="-144" y="-49" width="125" height="30" as="geometry" />
        </mxCell>
        <mxCell id="_s9-1Ygfd8paigMYJvEP-26" value="Parent Process" style="text;html=1;align=center;verticalAlign=middle;whiteSpace=wrap;rounded=0;fontSize=16;" vertex="1" parent="1">
          <mxGeometry x="-150" y="216" width="125" height="30" as="geometry" />
        </mxCell>
        <mxCell id="_s9-1Ygfd8paigMYJvEP-27" value="Driver" style="text;html=1;align=center;verticalAlign=middle;whiteSpace=wrap;rounded=0;fontSize=16;" vertex="1" parent="1">
          <mxGeometry x="-354" y="85" width="125" height="30" as="geometry" />
        </mxCell>
      </root>
    </mxGraphModel>
  </diagram>
</mxfile>
